<svg viewBox="0 0 935 1210" version="1.1" xmlns="http://www.w3.org/2000/svg">
<defs>
<clipPath id="c0_4"><path d="M-.2 115.7V-.2H935.3V115.7Z"/></clipPath>
<clipPath id="c1_4"><path d="M18.3 782.1v-43H902.4v43Z"/></clipPath>
<clipPath id="c2_4"><path d="M359.8 980.3V801.8H565.7V980.3Z"/></clipPath>
<clipPath id="c3_4"><path d="M30.3 979.7V801.8H362.8V979.7Z"/></clipPath>
<clipPath id="c4_4"><path d="M-.2 1210.3V-.2H935.3V1210.3Z"/></clipPath>
<clipPath id="c5_4"><path d="M-.2 116.9V-.2H935.3V116.9Z"/></clipPath>
<clipPath id="c6_4"><path d="M25.3 161.7V118.1H910.8v43.6Z"/></clipPath>
<clipPath id="c7_4"><path d="M690.1 73.8V47.9h24.7V73.8Z"/></clipPath>
<clipPath id="c8_4"><path d="M690.6 97.9V73.2h23.6V97.9Z"/></clipPath>
<clipPath id="c9_4"><path d="M691.2 47.2V24.8h22.4V47.2Z"/></clipPath>
<clipPath id="ca_4"><path d="M12.7 421V289.7H297.5V421Z"/></clipPath>
<clipPath id="cb_4"><path d="M18.1 289.7V167.5H298.3V289.7Z"/></clipPath>
<clipPath id="cc_4"><path d="M345.9 317.2V167.5H610.1V317.2Z"/></clipPath>
<clipPath id="cd_4"><path d="M377.3 539.2V330H565.8V539.2Z"/></clipPath>
<clipPath id="ce_4"><path d="M697.3 541.7V327.9h145V541.7Z"/></clipPath>
<clipPath id="cf_4"><path d="M12.7 559.9V427.5H297.5V559.9Z"/></clipPath>
<clipPath id="cg_4"><path d="M629.9 317.2V167.5H894.1V317.2Z"/></clipPath>
<clipPath id="ch_4"><path d="M23.5 708.7V584.9h276V708.7Z"/></clipPath>
<clipPath id="ci_4"><path d="M303.3 724.5V579H652.6V724.5Z"/></clipPath>
<clipPath id="cj_4"><path d="M657.8 686V583.8H923.6V686Z"/></clipPath>
<clipPath id="ck_4"><path d="M18 782.4V738.9H903.8v43.5Z"/></clipPath>
<clipPath id="cl_4"><path d="M30.1 991.8V801.6H651.9V991.8Z"/></clipPath>
<clipPath id="cm_4"><path d="M590.1 990.5V792.7H894.4V990.5Z"/></clipPath>
<clipPath id="cn_4"><path d="M25.3 1124.2V1021.6h268v102.6Z"/></clipPath>
<clipPath id="co_4"><path d="M330.4 1168.2V1022.7H626.6v145.5Z"/></clipPath>
<clipPath id="cp_4"><path d="M646.8 1167.1V1021.6H911.5v145.5Z"/></clipPath>
<clipPath id="cq_4"><path d="M722.7 68.9V52.8H862.4V68.9Z"/></clipPath>
<style>
.g0_4{fill:#FFF;}
.g1_4{fill:#5DC4FF;}
.g2_4{fill:#000;}
.g3_4{fill:#020323;}
.g4_4{fill:#000;fill-opacity:0;}
</style>
</defs>
<g clip-path="url(#c4_4)">
<path d="M0 0H935V1210H0V0Z" class="g0_4"/>
<path d="M0 0H935V1210H0V0Z" class="g0_4"/>
</g>
<g clip-path="url(#c5_4)" opacity="0.11">
<path clip-path="url(#c0_4)" d="M-34.7-22.1H993V115.3H-34.7V-22.1Z" class="g1_4"/>
</g>
<path d="M639 20.3v81.3h-1.1V20.3H639Z" class="g2_4"/>
<g clip-path="url(#c6_4)" opacity="0.11">
<path d="M25.8 118.7H909.2v42.4H25.8V118.7Z" class="g1_4"/>
</g>
<image clip-path="url(#c7_4)" preserveAspectRatio="none" x="690" y="48" width="24" height="25" href="img/1.png"/>
<image clip-path="url(#c8_4)" preserveAspectRatio="none" x="691" y="73" width="23" height="24" href="img/2.png"/>
<image clip-path="url(#c9_4)" preserveAspectRatio="none" x="691" y="25" width="22" height="22" href="img/3.png"/>
<image clip-path="url(#ca_4)" preserveAspectRatio="none" x="13" y="290" width="284" height="131" href="img/4.jpg"/>
<image clip-path="url(#cb_4)" preserveAspectRatio="none" x="18" y="168" width="280" height="121" href="img/5.jpg"/>
<image clip-path="url(#cc_4)" preserveAspectRatio="none" x="346" y="168" width="264" height="149" href="img/6.jpg"/>
<image clip-path="url(#cd_4)" preserveAspectRatio="none" x="366" y="309" width="199" height="354" href="img/7.jpg"/>
<image clip-path="url(#ce_4)" preserveAspectRatio="none" x="698" y="318" width="144" height="256" href="img/8.jpg"/>
<image clip-path="url(#cf_4)" preserveAspectRatio="none" x="13" y="428" width="284" height="132" href="img/9.jpg"/>
<image clip-path="url(#cg_4)" preserveAspectRatio="none" x="630" y="168" width="264" height="149" href="img/10.jpg"/>
<g clip-path="url(#ch_4)">
<path d="M30.9 594.3c0 .3-.1 .6-.2 .9c-.1 .3-.3 .5-.5 .7c-.2 .2-.4 .4-.7 .5c-.3 .1-.6 .2-.9 .2c-.3 0-.6-.1-.8-.2c-.3-.1-.6-.3-.8-.5c-.2-.2-.4-.4-.5-.7c-.1-.3-.1-.6-.1-.9c0-.3 0-.6 .1-.8c.1-.3 .3-.6 .5-.8c.2-.2 .5-.3 .8-.5c.2-.1 .5-.1 .8-.1c.3 0 .6 0 .9 .1c.3 .2 .5 .3 .7 .5c.2 .2 .4 .5 .5 .8c.1 .2 .2 .5 .2 .8Z" class="g3_4"/>
</g>
<g clip-path="url(#ci_4)">
<path d="M310.7 588.6c0 .3-.1 .6-.2 .9c-.1 .2-.3 .5-.5 .7c-.2 .2-.5 .4-.7 .5c-.3 .1-.6 .1-.9 .1c-.3 0-.6 0-.9-.1c-.2-.1-.5-.3-.7-.5c-.2-.2-.4-.5-.5-.7c-.1-.3-.2-.6-.2-.9c0-.3 .1-.6 .2-.9c.1-.2 .3-.5 .5-.7c.2-.2 .5-.4 .7-.5c.3-.1 .6-.2 .9-.2c.3 0 .6 .1 .9 .2c.2 .1 .5 .3 .7 .5c.2 .2 .4 .5 .5 .7c.1 .3 .2 .6 .2 .9Z" class="g3_4"/>
<path d="M310.7 631.4c0 .3-.1 .6-.2 .9c-.1 .3-.3 .5-.5 .7c-.2 .2-.5 .4-.7 .5c-.3 .1-.6 .2-.9 .2c-.3 0-.6-.1-.9-.2c-.2-.1-.5-.3-.7-.5c-.2-.2-.4-.4-.5-.7c-.1-.3-.2-.6-.2-.9c0-.3 .1-.6 .2-.8c.1-.3 .3-.6 .5-.8c.2-.2 .5-.4 .7-.5c.3-.1 .6-.1 .9-.1c.3 0 .6 0 .9 .1c.2 .1 .5 .3 .7 .5c.2 .2 .4 .5 .5 .8c.1 .2 .2 .5 .2 .8Z" class="g3_4"/>
<path d="M310.7 695.6c0 .3-.1 .6-.2 .9c-.1 .3-.3 .5-.5 .7c-.2 .2-.5 .4-.7 .5c-.3 .1-.6 .2-.9 .2c-.3 0-.6-.1-.9-.2c-.2-.1-.5-.3-.7-.5c-.2-.2-.4-.4-.5-.7c-.1-.3-.2-.6-.2-.9c0-.3 .1-.5 .2-.8c.1-.3 .3-.5 .5-.7c.2-.3 .5-.4 .7-.5c.3-.2 .6-.2 .9-.2c.3 0 .6 0 .9 .2c.2 .1 .5 .2 .7 .5c.2 .2 .4 .4 .5 .7c.1 .3 .2 .5 .2 .8Z" class="g3_4"/>
</g>
<g clip-path="url(#cj_4)">
<path d="M663.9 593.2c0 .3-.1 .6-.2 .8c-.1 .3-.2 .6-.5 .8c-.2 .2-.4 .3-.7 .5c-.3 .1-.6 .1-.9 .1c-.3 0-.5 0-.8-.1c-.3-.2-.5-.3-.7-.5c-.3-.2-.4-.5-.5-.8c-.2-.2-.2-.5-.2-.8c0-.3 0-.6 .2-.9c.1-.3 .2-.5 .5-.7c.2-.2 .4-.4 .7-.5c.3-.1 .5-.2 .8-.2c.3 0 .6 .1 .9 .2c.3 .1 .5 .3 .7 .5c.3 .2 .4 .4 .5 .7c.1 .3 .2 .6 .2 .9Z" class="g3_4"/>
</g>
<g clip-path="url(#ck_4)" opacity="0.11">
<path clip-path="url(#c1_4)" d="M18.6 739.4H902.1v42.4H18.6V739.4Z" class="g1_4"/>
</g>
<g clip-path="url(#cl_4)">
<image clip-path="url(#c2_4)" preserveAspectRatio="none" x="315" y="802" width="336" height="189" href="img/11.jpg"/>
<image clip-path="url(#c3_4)" preserveAspectRatio="none" x="31" y="802" width="335" height="189" href="img/12.jpg"/>
</g>
<image clip-path="url(#cm_4)" preserveAspectRatio="none" x="543" y="762" width="402" height="228" href="img/13.jpg"/>
<g clip-path="url(#cn_4)">
<path d="M32.5 1031.2c0 .3 0 .6-.2 .9c-.1 .2-.2 .5-.4 .7c-.3 .2-.5 .4-.8 .5c-.3 .1-.5 .1-.8 .1c-.3 0-.6 0-.9-.1c-.3-.1-.5-.3-.7-.5c-.2-.2-.4-.5-.5-.7c-.1-.3-.2-.6-.2-.9c0-.3 .1-.6 .2-.9c.1-.2 .3-.5 .5-.7c.2-.2 .4-.4 .7-.5c.3-.1 .6-.2 .9-.2c.3 0 .5 .1 .8 .2c.3 .1 .5 .3 .8 .5c.2 .2 .3 .5 .4 .7c.2 .3 .2 .6 .2 .9Z" class="g3_4"/>
</g>
<g clip-path="url(#co_4)">
<path d="M337.6 1032.3c0 .3 0 .6-.2 .9c-.1 .3-.2 .5-.5 .7c-.2 .2-.4 .4-.7 .5c-.3 .1-.5 .2-.8 .2c-.3 0-.6-.1-.9-.2c-.3-.1-.5-.3-.7-.5c-.2-.2-.4-.4-.5-.7c-.1-.3-.2-.6-.2-.9c0-.3 .1-.5 .2-.8c.1-.3 .3-.5 .5-.8c.2-.2 .4-.3 .7-.4c.3-.2 .6-.2 .9-.2c.3 0 .5 0 .8 .2c.3 .1 .5 .2 .7 .4c.3 .3 .4 .5 .5 .8c.2 .3 .2 .5 .2 .8Z" class="g3_4"/>
<path d="M337.6 1075.2c0 .3 0 .5-.2 .8c-.1 .3-.2 .5-.5 .8c-.2 .2-.4 .3-.7 .4c-.3 .2-.5 .2-.8 .2c-.3 0-.6 0-.9-.2c-.3-.1-.5-.2-.7-.4c-.2-.3-.4-.5-.5-.8c-.1-.3-.2-.5-.2-.8c0-.3 .1-.6 .2-.9c.1-.3 .3-.5 .5-.7c.2-.2 .4-.4 .7-.5c.3-.1 .6-.2 .9-.2c.3 0 .5 .1 .8 .2c.3 .1 .5 .3 .7 .5c.3 .2 .4 .4 .5 .7c.2 .3 .2 .6 .2 .9Z" class="g3_4"/>
</g>
<g clip-path="url(#cp_4)">
<path d="M654 1031.2c0 .3 0 .6-.1 .9c-.1 .2-.3 .5-.5 .7c-.2 .2-.5 .4-.8 .5c-.2 .1-.5 .1-.8 .1c-.3 0-.6 0-.9-.1c-.3-.1-.5-.3-.7-.5c-.2-.2-.4-.5-.5-.7c-.1-.3-.2-.6-.2-.9c0-.3 .1-.6 .2-.9c.1-.2 .3-.5 .5-.7c.2-.2 .4-.4 .7-.5c.3-.1 .6-.2 .9-.2c.3 0 .6 .1 .8 .2c.3 .1 .6 .3 .8 .5c.2 .2 .4 .5 .5 .7c.1 .3 .1 .6 .1 .9Z" class="g3_4"/>
</g>
<g clip-path="url(#cq_4)">
<path d="M724 66.2H861.3v1H724v-1Z" class="g2_4"/>
</g>
<path d="M-34.7 115.7H993V-22.1H-34.7V115.7Z" class="g4_4"/>
<path d="M637.9 102.2H639V20.3h-1.1v81.9Z" class="g4_4"/>
<path d="M25.8 160.8H909.2V118.7H25.8v42.1Z" class="g4_4"/>
<path d="M18.6 781.5H902.1V739.4H18.6v42.1Z" class="g4_4"/>
<path d="M30.6 979.1H362.4v-177H30.6v177Z" class="g4_4"/>
</svg>