<svg viewBox="0 0 935 1210" version="1.1" xmlns="http://www.w3.org/2000/svg">
<defs>
<clipPath id="c0_3"><path d="M41.7 689.1v-43H925.8v43Z"/></clipPath>
<clipPath id="c1_3"><path d="M-.2 1210.3V-.2H935.3V1210.3Z"/></clipPath>
<clipPath id="c2_3"><path d="M12.5 132.7V12.5H923.2V132.7Z"/></clipPath>
<clipPath id="c3_3"><path d="M705.7 89.8V64h24.8V89.8Z"/></clipPath>
<clipPath id="c4_3"><path d="M706.3 113.9V89.2h23.5v24.7Z"/></clipPath>
<clipPath id="c5_3"><path d="M706.8 63.2V40.8h22.4V63.2Z"/></clipPath>
<clipPath id="c6_3"><path d="M41.5 689.3V645.7H927.3v43.6Z"/></clipPath>
<clipPath id="c7_3"><path d="M683.2 926V709.9H909.5V926Z"/></clipPath>
<clipPath id="c8_3"><path d="M29.1 823.7V693.6H344.8V823.7Z"/></clipPath>
<clipPath id="c9_3"><path d="M26.5 962.9V823.6H346.9V962.9Z"/></clipPath>
<clipPath id="ca_3"><path d="M374.7 928.3V709.9H665.2V928.3Z"/></clipPath>
<clipPath id="cb_3"><path d="M25.7 1142.1V1018.3H298.4v123.8Z"/></clipPath>
<clipPath id="cc_3"><path d="M311.3 1185V1018.3H614.5V1185Z"/></clipPath>
<clipPath id="cd_3"><path d="M29 181.8V138.6H914.4v43.2Z"/></clipPath>
<clipPath id="ce_3"><path d="M269.8 455.8V203.1H658.9V455.8Z"/></clipPath>
<clipPath id="cf_3"><path d="M43.8 455.8V203.1H255.2V455.8Z"/></clipPath>
<clipPath id="cg_3"><path d="M678.6 458.1V201.9H913V458.1Z"/></clipPath>
<clipPath id="ch_3"><path d="M43.7 596.2V493.6H316V596.2Z"/></clipPath>
<clipPath id="ci_3"><path d="M327.5 639.1V493.6H659.6V639.1Z"/></clipPath>
<clipPath id="cj_3"><path d="M663.3 616V493.6h253V616Z"/></clipPath>
<clipPath id="ck_3"><path d="M738.1 86.1v-16H877.8v16Z"/></clipPath>
<style>
.g0_3{fill:#FFF;}
.g1_3{fill:#5DC4FF;}
.g2_3{fill:#000;}
.g3_3{fill:#020323;}
.g4_3{fill:#000;fill-opacity:0;}
</style>
</defs>
<g clip-path="url(#c1_3)">
<path d="M0 0H935V1210H0V0Z" class="g0_3"/>
<path d="M0 0H935V1210H0V0Z" class="g0_3"/>
</g>
<g clip-path="url(#c2_3)" opacity="0.11">
<path d="M13 13H921.6V132.2H13V13Z" class="g1_3"/>
</g>
<path d="M654.7 36.3v81.4h-1.2V36.3h1.2Z" class="g2_3"/>
<image clip-path="url(#c3_3)" preserveAspectRatio="none" x="706" y="64" width="24" height="26" href="img/1.png"/>
<image clip-path="url(#c4_3)" preserveAspectRatio="none" x="707" y="89" width="23" height="24" href="img/2.png"/>
<image clip-path="url(#c5_3)" preserveAspectRatio="none" x="707" y="41" width="22" height="22" href="img/3.png"/>
<g clip-path="url(#c6_3)" opacity="0.11">
<path clip-path="url(#c0_3)" d="M42 646.4H925.4v42.4H42V646.4Z" class="g1_3"/>
</g>
<image clip-path="url(#c7_3)" preserveAspectRatio="none" x="677" y="629" width="233" height="413" href="img/4.jpg"/>
<image clip-path="url(#c8_3)" preserveAspectRatio="none" x="-90" y="682" width="548" height="156" href="img/5.jpg"/>
<image clip-path="url(#c9_3)" preserveAspectRatio="none" x="27" y="763" width="325" height="230" href="img/6.png"/>
<image clip-path="url(#ca_3)" preserveAspectRatio="none" x="375" y="710" width="290" height="218" href="img/7.jpg"/>
<g clip-path="url(#cb_3)">
<path d="M32 1027.8c0 .3-.1 .6-.2 .9c-.1 .2-.3 .5-.5 .7c-.2 .2-.4 .4-.7 .5c-.3 .1-.6 .2-.9 .2c-.3 0-.5-.1-.8-.2c-.3-.1-.5-.3-.8-.5c-.2-.2-.3-.5-.4-.7c-.2-.3-.2-.6-.2-.9c0-.3 0-.6 .2-.9c.1-.2 .2-.5 .4-.7c.3-.2 .5-.4 .8-.5c.3-.1 .5-.2 .8-.2c.3 0 .6 .1 .9 .2c.3 .1 .5 .3 .7 .5c.2 .2 .4 .5 .5 .7c.1 .3 .2 .6 .2 .9Z" class="g3_3"/>
</g>
<g clip-path="url(#cc_3)">
<path d="M318.8 1027.8c0 .3-.1 .6-.2 .9c-.1 .2-.3 .5-.5 .7c-.2 .2-.4 .4-.7 .5c-.3 .1-.6 .2-.9 .2c-.3 0-.6-.1-.8-.2c-.3-.1-.6-.3-.8-.5c-.2-.2-.3-.5-.5-.7c-.1-.3-.1-.6-.1-.9c0-.3 0-.6 .1-.9c.2-.2 .3-.5 .5-.7c.2-.2 .5-.4 .8-.5c.2-.1 .5-.2 .8-.2c.3 0 .6 .1 .9 .2c.3 .1 .5 .3 .7 .5c.2 .2 .4 .5 .5 .7c.1 .3 .2 .6 .2 .9Z" class="g3_3"/>
<path d="M318.8 1092c0 .3-.1 .6-.2 .9c-.1 .3-.3 .5-.5 .7c-.2 .2-.4 .4-.7 .5c-.3 .1-.6 .2-.9 .2c-.3 0-.6-.1-.8-.2c-.3-.1-.6-.3-.8-.5c-.2-.2-.3-.4-.5-.7c-.1-.3-.1-.6-.1-.9c0-.3 0-.6 .1-.8c.2-.3 .3-.6 .5-.8c.2-.2 .5-.3 .8-.5c.2-.1 .5-.1 .8-.1c.3 0 .6 0 .9 .1c.3 .2 .5 .3 .7 .5c.2 .2 .4 .5 .5 .8c.1 .2 .2 .5 .2 .8Z" class="g3_3"/>
<path d="M318.8 1156.3c0 .3-.1 .5-.2 .8c-.1 .3-.3 .5-.5 .7c-.2 .3-.4 .4-.7 .5c-.3 .2-.6 .2-.9 .2c-.3 0-.6 0-.8-.2c-.3-.1-.6-.2-.8-.5c-.2-.2-.3-.4-.5-.7c-.1-.3-.1-.5-.1-.8c0-.3 0-.6 .1-.9c.2-.3 .3-.5 .5-.7c.2-.2 .5-.4 .8-.5c.2-.1 .5-.2 .8-.2c.3 0 .6 .1 .9 .2c.3 .1 .5 .3 .7 .5c.2 .2 .4 .4 .5 .7c.1 .3 .2 .6 .2 .9Z" class="g3_3"/>
</g>
<g clip-path="url(#cd_3)" opacity="0.11">
<path d="M29.4 139H912.9v42.4H29.4V139Z" class="g1_3"/>
</g>
<image clip-path="url(#ce_3)" preserveAspectRatio="none" x="240" y="203" width="449" height="253" href="img/8.jpg"/>
<image clip-path="url(#cf_3)" preserveAspectRatio="none" x="44" y="125" width="214" height="381" href="img/9.jpg"/>
<image clip-path="url(#cg_3)" preserveAspectRatio="none" x="679" y="65" width="234" height="419" href="img/10.jpg"/>
<g clip-path="url(#ch_3)">
<path d="M50.8 503.2c0 .3 0 .6-.1 .9c-.1 .3-.3 .5-.5 .7c-.2 .2-.5 .4-.8 .5c-.2 .1-.5 .2-.8 .2c-.3 0-.6-.1-.9-.2c-.3-.1-.5-.3-.7-.5c-.2-.2-.4-.4-.5-.7c-.1-.3-.2-.6-.2-.9c0-.3 .1-.6 .2-.8c.1-.3 .3-.6 .5-.8c.2-.2 .4-.3 .7-.5c.3-.1 .6-.1 .9-.1c.3 0 .6 0 .8 .1c.3 .2 .6 .3 .8 .5c.2 .2 .4 .5 .5 .8c.1 .2 .1 .5 .1 .8Z" class="g3_3"/>
</g>
<g clip-path="url(#ci_3)">
<path d="M334.6 503.2c0 .3-.1 .6-.2 .9c-.1 .3-.3 .5-.5 .7c-.2 .2-.4 .4-.7 .5c-.3 .1-.6 .2-.9 .2c-.3 0-.6-.1-.8-.2c-.3-.1-.6-.3-.8-.5c-.2-.2-.3-.4-.5-.7c-.1-.3-.1-.6-.1-.9c0-.3 0-.6 .1-.8c.2-.3 .3-.6 .5-.8c.2-.2 .5-.3 .8-.5c.2-.1 .5-.1 .8-.1c.3 0 .6 0 .9 .1c.3 .2 .5 .3 .7 .5c.2 .2 .4 .5 .5 .8c.1 .2 .2 .5 .2 .8Z" class="g3_3"/>
<path d="M334.6 567.5c0 .3-.1 .5-.2 .8c-.1 .3-.3 .5-.5 .8c-.2 .2-.4 .3-.7 .4c-.3 .2-.6 .2-.9 .2c-.3 0-.6 0-.8-.2c-.3-.1-.6-.2-.8-.4c-.2-.3-.3-.5-.5-.8c-.1-.3-.1-.5-.1-.8c0-.3 0-.6 .1-.9c.2-.3 .3-.5 .5-.7c.2-.2 .5-.4 .8-.5c.2-.1 .5-.2 .8-.2c.3 0 .6 .1 .9 .2c.3 .1 .5 .3 .7 .5c.2 .2 .4 .4 .5 .7c.1 .3 .2 .6 .2 .9Z" class="g3_3"/>
<path d="M334.6 588.9c0 .3-.1 .6-.2 .8c-.1 .3-.3 .6-.5 .8c-.2 .2-.4 .3-.7 .5c-.3 .1-.6 .1-.9 .1c-.3 0-.6 0-.8-.1c-.3-.2-.6-.3-.8-.5c-.2-.2-.3-.5-.5-.8c-.1-.2-.1-.5-.1-.8c0-.3 0-.6 .1-.9c.2-.3 .3-.5 .5-.7c.2-.2 .5-.4 .8-.5c.2-.1 .5-.2 .8-.2c.3 0 .6 .1 .9 .2c.3 .1 .5 .3 .7 .5c.2 .2 .4 .4 .5 .7c.1 .3 .2 .6 .2 .9Z" class="g3_3"/>
</g>
<g clip-path="url(#cj_3)">
<path d="M670.5 502.9c0 .3 0 .6-.1 .8c-.1 .3-.3 .5-.5 .7c-.2 .3-.5 .4-.7 .5c-.3 .1-.6 .2-.9 .2c-.3 0-.6-.1-.8-.2c-.3-.1-.6-.2-.8-.5c-.2-.2-.3-.4-.4-.7c-.2-.2-.2-.5-.2-.8c0-.3 0-.6 .2-.9c.1-.3 .2-.5 .4-.7c.2-.2 .5-.4 .8-.5c.2-.1 .5-.2 .8-.2c.3 0 .6 .1 .9 .2c.2 .1 .5 .3 .7 .5c.2 .2 .4 .4 .5 .7c.1 .3 .1 .6 .1 .9Z" class="g3_3"/>
</g>
<g clip-path="url(#ck_3)">
<path d="M738.7 83.5H876v1H738.7v-1Z" class="g2_3"/>
</g>
<path d="M13 131.7H922V13H13V131.7Z" class="g4_3"/>
<path d="M653.5 118.2h1.2V36.3h-1.2v81.9Z" class="g4_3"/>
<path d="M29.4 181.1H912.9V139H29.4v42.1Z" class="g4_3"/>
<path d="M42 688.5H925.5V646.4H42v42.1Z" class="g4_3"/>
</svg>