<svg viewBox="0 0 935 1210" version="1.1" xmlns="http://www.w3.org/2000/svg">
<defs>
<clipPath id="c0_1"><path d="M-.2 1210.3V-.2H935.3V1210.3Z"/></clipPath>
<clipPath id="c1_1"><path d="M12.5 116.6V12.5H923.2V116.6Z"/></clipPath>
<clipPath id="c2_1"><path d="M25.3 168.6V125.1H910.8v43.5Z"/></clipPath>
<clipPath id="c3_1"><path d="M517.2 389.4V175.6H720.7V389.4Z"/></clipPath>
<clipPath id="c4_1"><path d="M735.9 392.8V175.6H909.5V392.8Z"/></clipPath>
<clipPath id="c5_1"><path d="M286.4 658.5V427.6H600.6V658.5Z"/></clipPath>
<clipPath id="c6_1"><path d="M687.7 73.8V47.9h24.7V73.8Z"/></clipPath>
<clipPath id="c7_1"><path d="M688.2 97.9V73.2h23.6V97.9Z"/></clipPath>
<clipPath id="c8_1"><path d="M688.8 47.2V24.8h22.4V47.2Z"/></clipPath>
<clipPath id="c9_1"><path d="M30.1 719.7V676.5H915.5v43.2Z"/></clipPath>
<clipPath id="ca_1"><path d="M326.1 967.6V740H596V967.6Z"/></clipPath>
<clipPath id="cb_1"><path d="M638.5 971V740H871.8V971Z"/></clipPath>
<clipPath id="cc_1"><path d="M33.9 967.6V734.3H270.6V967.6Z"/></clipPath>
<clipPath id="cd_1"><path d="M219.9 389.4V175.6H507V389.4Z"/></clipPath>
<clipPath id="ce_1"><path d="M15.1 389.4V175.6H211.7V389.4Z"/></clipPath>
<clipPath id="cf_1"><path d="M22.4 573.8V428.7h239V573.8Z"/></clipPath>
<clipPath id="cg_1"><path d="M616.4 572.7V427.6H907.1V572.7Z"/></clipPath>
<clipPath id="ch_1"><path d="M609.4 1127.1V1003.2h283v123.9Z"/></clipPath>
<clipPath id="ci_1"><path d="M26.1 1111V1008.7H297.3V1111Z"/></clipPath>
<clipPath id="cj_1"><path d="M308 1148.7V1003.2H595.4v145.5Z"/></clipPath>
<clipPath id="ck_1"><path d="M720.2 68.9V52.8H859.8V68.9Z"/></clipPath>
<style>
.g0_1{fill:#FFF;}
.g1_1{fill:#5DC4FF;}
.g2_1{fill:#000;}
.g3_1{fill:#020323;}
.g4_1{fill:#000;fill-opacity:0;}
</style>
</defs>
<g clip-path="url(#c0_1)">
<path d="M0 0H935V1210H0V0Z" class="g0_1"/>
<path d="M0 0H935V1210H0V0Z" class="g0_1"/>
</g>
<g clip-path="url(#c1_1)" opacity="0.12">
<path d="M13 13H921.6V116.1H13V13Z" class="g1_1"/>
</g>
<path d="M639 20.3v81.3h-1.1V20.3H639Z" class="g2_1"/>
<g clip-path="url(#c2_1)" opacity="0.11">
<path d="M25.8 125.6H909.2V168H25.8V125.6Z" class="g1_1"/>
</g>
<image clip-path="url(#c3_1)" preserveAspectRatio="none" x="486" y="-44" width="244" height="433" href="img/1.jpg"/>
<image clip-path="url(#c4_1)" preserveAspectRatio="none" x="736" y="146" width="219" height="389" href="img/2.jpg"/>
<g clip-path="url(#c5_1)">
<path d="M292.6 437.1c0 .3-.1 .6-.2 .8c-.1 .3-.3 .6-.5 .8c-.2 .2-.4 .3-.7 .5c-.3 .1-.6 .1-.9 .1c-.3 0-.6 0-.8-.1c-.3-.2-.6-.3-.8-.5c-.2-.2-.3-.5-.5-.8c-.1-.2-.1-.5-.1-.8c0-.3 0-.6 .1-.9c.2-.3 .3-.5 .5-.7c.2-.2 .5-.4 .8-.5c.2-.1 .5-.2 .8-.2c.3 0 .6 .1 .9 .2c.3 .1 .5 .3 .7 .5c.2 .2 .4 .4 .5 .7c.1 .3 .2 .6 .2 .9Z" class="g3_1"/>
<path d="M292.6 522.7c0 .3-.1 .6-.2 .9c-.1 .3-.3 .5-.5 .7c-.2 .2-.4 .4-.7 .5c-.3 .1-.6 .2-.9 .2c-.3 0-.6-.1-.8-.2c-.3-.1-.6-.3-.8-.5c-.2-.2-.3-.4-.5-.7c-.1-.3-.1-.6-.1-.9c0-.3 0-.6 .1-.8c.2-.3 .3-.6 .5-.8c.2-.2 .5-.4 .8-.5c.2-.1 .5-.1 .8-.1c.3 0 .6 0 .9 .1c.3 .1 .5 .3 .7 .5c.2 .2 .4 .5 .5 .8c.1 .2 .2 .5 .2 .8Z" class="g3_1"/>
<path d="M292.6 608.4c0 .3-.1 .5-.2 .8c-.1 .3-.3 .5-.5 .7c-.2 .3-.4 .4-.7 .5c-.3 .1-.6 .2-.9 .2c-.3 0-.6-.1-.8-.2c-.3-.1-.6-.2-.8-.5c-.2-.2-.3-.4-.5-.7c-.1-.3-.1-.5-.1-.8c0-.3 0-.6 .1-.9c.2-.3 .3-.5 .5-.7c.2-.3 .5-.4 .8-.5c.2-.1 .5-.2 .8-.2c.3 0 .6 .1 .9 .2c.3 .1 .5 .2 .7 .5c.2 .2 .4 .4 .5 .7c.1 .3 .2 .6 .2 .9Z" class="g3_1"/>
</g>
<image clip-path="url(#c6_1)" preserveAspectRatio="none" x="688" y="48" width="24" height="25" href="img/3.png"/>
<image clip-path="url(#c7_1)" preserveAspectRatio="none" x="689" y="73" width="22" height="24" href="img/4.png"/>
<image clip-path="url(#c8_1)" preserveAspectRatio="none" x="689" y="25" width="22" height="22" href="img/5.png"/>
<g clip-path="url(#c9_1)" opacity="0.11">
<path d="M30.6 676.9H914v42.4H30.6V676.9Z" class="g1_1"/>
</g>
<image clip-path="url(#ca_1)" preserveAspectRatio="none" x="326" y="587" width="270" height="479" href="img/6.jpg"/>
<image clip-path="url(#cb_1)" preserveAspectRatio="none" x="619" y="643" width="252" height="449" href="img/7.jpg"/>
<image clip-path="url(#cc_1)" preserveAspectRatio="none" x="-97" y="735" width="463" height="232" href="img/8.jpg"/>
<image clip-path="url(#cd_1)" preserveAspectRatio="none" x="220" y="170" width="446" height="264" href="img/9.jpg"/>
<image clip-path="url(#ce_1)" preserveAspectRatio="none" x="6" y="166" width="234" height="232" href="img/10.jpg"/>
<g clip-path="url(#cf_1)">
<path d="M28.6 438.2c0 .3 0 .6-.2 .9c-.1 .3-.2 .5-.4 .7c-.3 .2-.5 .4-.8 .5c-.2 .1-.5 .2-.8 .2c-.3 0-.6-.1-.9-.2c-.3-.1-.5-.3-.7-.5c-.2-.2-.4-.4-.5-.7c-.1-.3-.2-.6-.2-.9c0-.3 .1-.6 .2-.8c.1-.3 .3-.6 .5-.8c.2-.2 .4-.3 .7-.5c.3-.1 .6-.1 .9-.1c.3 0 .6 0 .8 .1c.3 .2 .5 .3 .8 .5c.2 .2 .3 .5 .4 .8c.2 .2 .2 .5 .2 .8Z" class="g3_1"/>
<path d="M28.6 523.9c0 .3 0 .5-.2 .8c-.1 .3-.2 .5-.4 .8c-.3 .2-.5 .3-.8 .4c-.2 .2-.5 .2-.8 .2c-.3 0-.6 0-.9-.2c-.3-.1-.5-.2-.7-.4c-.2-.3-.4-.5-.5-.8c-.1-.3-.2-.5-.2-.8c0-.3 .1-.6 .2-.9c.1-.3 .3-.5 .5-.7c.2-.2 .4-.4 .7-.5c.3-.1 .6-.2 .9-.2c.3 0 .6 .1 .8 .2c.3 .1 .5 .3 .8 .5c.2 .2 .3 .4 .4 .7c.2 .3 .2 .6 .2 .9Z" class="g3_1"/>
</g>
<g clip-path="url(#cg_1)">
<path d="M623.8 437.1c0 .3 0 .6-.1 .8c-.1 .3-.3 .6-.5 .8c-.2 .2-.5 .3-.7 .5c-.3 .1-.6 .1-.9 .1c-.3 0-.6 0-.9-.1c-.3-.2-.5-.3-.7-.5c-.2-.2-.4-.5-.5-.8c-.1-.2-.2-.5-.2-.8c0-.3 .1-.6 .2-.9c.1-.3 .3-.5 .5-.7c.2-.2 .4-.4 .7-.5c.3-.1 .6-.2 .9-.2c.3 0 .6 .1 .9 .2c.2 .1 .5 .3 .7 .5c.2 .2 .4 .4 .5 .7c.1 .3 .1 .6 .1 .9Z" class="g3_1"/>
</g>
<g clip-path="url(#ch_1)">
<path d="M615.7 1012.9c0 .3-.1 .6-.2 .8c-.1 .3-.3 .6-.5 .8c-.2 .2-.4 .3-.7 .5c-.3 .1-.6 .1-.9 .1c-.3 0-.6 0-.8-.1c-.3-.2-.6-.3-.8-.5c-.2-.2-.3-.5-.5-.8c-.1-.2-.1-.5-.1-.8c0-.3 0-.6 .1-.9c.2-.3 .3-.5 .5-.7c.2-.2 .5-.4 .8-.5c.2-.1 .5-.2 .8-.2c.3 0 .6 .1 .9 .2c.3 .1 .5 .3 .7 .5c.2 .2 .4 .4 .5 .7c.1 .3 .2 .6 .2 .9Z" class="g3_1"/>
<path d="M615.7 1077.1c0 .3-.1 .6-.2 .9c-.1 .2-.3 .5-.5 .7c-.2 .2-.4 .4-.7 .5c-.3 .1-.6 .2-.9 .2c-.3 0-.6-.1-.8-.2c-.3-.1-.6-.3-.8-.5c-.2-.2-.3-.5-.5-.7c-.1-.3-.1-.6-.1-.9c0-.3 0-.6 .1-.9c.2-.2 .3-.5 .5-.7c.2-.2 .5-.4 .8-.5c.2-.1 .5-.1 .8-.1c.3 0 .6 0 .9 .1c.3 .1 .5 .3 .7 .5c.2 .2 .4 .5 .5 .7c.1 .3 .2 .6 .2 .9Z" class="g3_1"/>
</g>
<g clip-path="url(#ci_1)">
<path d="M32.2 1018.1c0 .3-.1 .6-.2 .9c-.1 .3-.3 .5-.5 .7c-.2 .2-.4 .4-.7 .5c-.3 .1-.6 .2-.9 .2c-.3 0-.6-.1-.8-.2c-.3-.1-.6-.3-.8-.5c-.2-.2-.4-.4-.5-.7c-.1-.3-.1-.6-.1-.9c0-.3 0-.5 .1-.8c.1-.3 .3-.5 .5-.7c.2-.3 .5-.4 .8-.5c.2-.2 .5-.2 .8-.2c.3 0 .6 0 .9 .2c.3 .1 .5 .2 .7 .5c.2 .2 .4 .4 .5 .7c.1 .3 .2 .5 .2 .8Z" class="g3_1"/>
</g>
<g clip-path="url(#cj_1)">
<path d="M320 1012.9c0 .3-.1 .6-.2 .8c-.1 .3-.3 .6-.5 .8c-.2 .2-.4 .3-.7 .5c-.3 .1-.6 .1-.9 .1c-.3 0-.6 0-.8-.1c-.3-.2-.6-.3-.8-.5c-.2-.2-.3-.5-.5-.8c-.1-.2-.1-.5-.1-.8c0-.3 0-.6 .1-.9c.2-.3 .3-.5 .5-.7c.2-.2 .5-.4 .8-.5c.2-.1 .5-.2 .8-.2c.3 0 .6 .1 .9 .2c.3 .1 .5 .3 .7 .5c.2 .2 .4 .4 .5 .7c.1 .3 .2 .6 .2 .9Z" class="g3_1"/>
<path d="M315.5 1098.5c0 .3-.1 .6-.2 .9c-.1 .3-.3 .5-.5 .7c-.2 .2-.4 .4-.7 .5c-.3 .1-.6 .2-.9 .2c-.3 0-.6-.1-.8-.2c-.3-.1-.6-.3-.8-.5c-.2-.2-.4-.4-.5-.7c-.1-.3-.1-.6-.1-.9c0-.3 0-.6 .1-.8c.1-.3 .3-.6 .5-.8c.2-.2 .5-.3 .8-.5c.2-.1 .5-.1 .8-.1c.3 0 .6 0 .9 .1c.3 .2 .5 .3 .7 .5c.2 .2 .4 .5 .5 .8c.1 .2 .2 .5 .2 .8Z" class="g3_1"/>
</g>
<g clip-path="url(#ck_1)">
<path d="M720.7 66.2H858v1H720.7v-1Z" class="g2_1"/>
</g>
<path d="M13 115.7H922V13H13V115.7Z" class="g4_1"/>
<path d="M637.9 102.2H639V20.3h-1.1v81.9Z" class="g4_1"/>
<path d="M25.8 167.7H909.2V125.6H25.8v42.1Z" class="g4_1"/>
<path d="M30.6 719H914.1V676.9H30.6V719Z" class="g4_1"/>
</svg>