<svg viewBox="0 0 935 1210" version="1.1" xmlns="http://www.w3.org/2000/svg">
<defs>
<clipPath id="c0_2"><path d="M22.5 703.7v-43h884v43Z"/></clipPath>
<clipPath id="c1_2"><path d="M-.2 1210.3V-.2H935.3V1210.3Z"/></clipPath>
<clipPath id="c2_2"><path d="M12.5 116.6V12.5H923.2V116.6Z"/></clipPath>
<clipPath id="c3_2"><path d="M25.3 168.6V125.1H910.8v43.5Z"/></clipPath>
<clipPath id="c4_2"><path d="M22.4 704V660.4H907.8V704Z"/></clipPath>
<clipPath id="c5_2"><path d="M687.7 73.8V47.9h24.7V73.8Z"/></clipPath>
<clipPath id="c6_2"><path d="M688.2 97.9V73.2h23.6V97.9Z"/></clipPath>
<clipPath id="c7_2"><path d="M688.8 47.2V24.8h22.4V47.2Z"/></clipPath>
<clipPath id="c8_2"><path d="M51.7 385.7v-208H267.8v208Z"/></clipPath>
<clipPath id="c9_2"><path d="M327.8 385.7v-208H567.9v208Z"/></clipPath>
<clipPath id="ca_2"><path d="M638.7 385.8V173.2H910.9V385.8Z"/></clipPath>
<clipPath id="cb_2"><path d="M46.8 941.2V724H289.2V941.2Z"/></clipPath>
<clipPath id="cc_2"><path d="M665.5 832.9V706.2H897.6V832.9Z"/></clipPath>
<clipPath id="cd_2"><path d="M494.2 941.1V725H640.4V941.1Z"/></clipPath>
<clipPath id="ce_2"><path d="M316.9 940.9V722.6H470V940.9Z"/></clipPath>
<clipPath id="cf_2"><path d="M669.1 949.7V842.4H897.7V949.7Z"/></clipPath>
<clipPath id="cg_2"><path d="M22.4 627.7V418.4H264.7V627.7Z"/></clipPath>
<clipPath id="ch_2"><path d="M286.4 629.2V419.5H611.9V629.2Z"/></clipPath>
<clipPath id="ci_2"><path d="M616.4 651.9V421H902.7V651.9Z"/></clipPath>
<clipPath id="cj_2"><path d="M14 1167.8V979.4H280.8v188.4Z"/></clipPath>
<clipPath id="ck_2"><path d="M293.7 1182.8V973.5H593.2v209.3Z"/></clipPath>
<clipPath id="cl_2"><path d="M627.4 1123.4V977.9H915.5v145.5Z"/></clipPath>
<clipPath id="cm_2"><path d="M721.3 67.8V51.7H860.9V67.8Z"/></clipPath>
<style>
.g0_2{fill:#FFF;}
.g1_2{fill:#5DC4FF;}
.g2_2{fill:#000;}
.g3_2{fill:#020323;}
.g4_2{fill:#000;fill-opacity:0;}
</style>
</defs>
<g clip-path="url(#c1_2)">
<path d="M0 0H935V1210H0V0Z" class="g0_2"/>
<path d="M0 0H935V1210H0V0Z" class="g0_2"/>
</g>
<g clip-path="url(#c2_2)" opacity="0.12">
<path d="M13 13H921.6V116.1H13V13Z" class="g1_2"/>
</g>
<path d="M639 20.3v81.3h-1.1V20.3H639Z" class="g2_2"/>
<g clip-path="url(#c3_2)" opacity="0.11">
<path d="M25.8 125.6H909.2V168H25.8V125.6Z" class="g1_2"/>
</g>
<g clip-path="url(#c4_2)" opacity="0.11">
<path clip-path="url(#c0_2)" d="M22.8 661H906.2v42.4H22.8V661Z" class="g1_2"/>
</g>
<image clip-path="url(#c5_2)" preserveAspectRatio="none" x="688" y="48" width="24" height="25" href="img/1.png"/>
<image clip-path="url(#c6_2)" preserveAspectRatio="none" x="689" y="73" width="22" height="24" href="img/2.png"/>
<image clip-path="url(#c7_2)" preserveAspectRatio="none" x="689" y="25" width="22" height="22" href="img/3.png"/>
<image clip-path="url(#c8_2)" preserveAspectRatio="none" x="52" y="89" width="215" height="383" href="img/4.jpg"/>
<image clip-path="url(#c9_2)" preserveAspectRatio="none" x="328" y="178" width="240" height="207" href="img/5.jpg"/>
<image clip-path="url(#ca_2)" preserveAspectRatio="none" x="639" y="174" width="272" height="211" href="img/6.jpg"/>
<image clip-path="url(#cb_2)" preserveAspectRatio="none" x="47" y="699" width="242" height="256" href="img/7.jpg"/>
<image clip-path="url(#cc_2)" preserveAspectRatio="none" x="666" y="707" width="231" height="134" href="img/8.jpg"/>
<image clip-path="url(#cd_2)" preserveAspectRatio="none" x="495" y="725" width="145" height="216" href="img/9.jpg"/>
<image clip-path="url(#ce_2)" preserveAspectRatio="none" x="287" y="723" width="212" height="218" href="img/10.jpg"/>
<image clip-path="url(#cf_2)" preserveAspectRatio="none" x="386" y="717" width="719" height="336" href="img/11.jpg"/>
<g clip-path="url(#cg_2)">
<path d="M28.6 427.9c0 .3 0 .6-.2 .9c-.1 .2-.2 .5-.4 .7c-.3 .2-.5 .4-.8 .5c-.2 .1-.5 .2-.8 .2c-.3 0-.6-.1-.9-.2c-.3-.1-.5-.3-.7-.5c-.2-.2-.4-.5-.5-.7c-.1-.3-.2-.6-.2-.9c0-.3 .1-.6 .2-.9c.1-.2 .3-.5 .5-.7c.2-.2 .4-.4 .7-.5c.3-.1 .6-.1 .9-.1c.3 0 .6 0 .8 .1c.3 .1 .5 .3 .8 .5c.2 .2 .3 .5 .4 .7c.2 .3 .2 .6 .2 .9Z" class="g3_2"/>
<path d="M28.6 535c0 .3 0 .5-.2 .8c-.1 .3-.2 .5-.4 .7c-.3 .3-.5 .4-.8 .5c-.2 .2-.5 .2-.8 .2c-.3 0-.6 0-.9-.2c-.3-.1-.5-.2-.7-.5c-.2-.2-.4-.4-.5-.7c-.1-.3-.2-.5-.2-.8c0-.3 .1-.6 .2-.9c.1-.3 .3-.5 .5-.7c.2-.2 .4-.4 .7-.5c.3-.1 .6-.2 .9-.2c.3 0 .6 .1 .8 .2c.3 .1 .5 .3 .8 .5c.2 .2 .3 .4 .4 .7c.2 .3 .2 .6 .2 .9Z" class="g3_2"/>
</g>
<g clip-path="url(#ch_2)">
<path d="M292.6 429.2c0 .3-.1 .6-.2 .8c-.1 .3-.3 .6-.5 .8c-.2 .2-.4 .3-.7 .5c-.3 .1-.6 .1-.9 .1c-.3 0-.6 0-.8-.1c-.3-.2-.6-.3-.8-.5c-.2-.2-.3-.5-.5-.8c-.1-.2-.1-.5-.1-.8c0-.3 0-.6 .1-.9c.2-.3 .3-.5 .5-.7c.2-.2 .5-.4 .8-.5c.2-.1 .5-.2 .8-.2c.3 0 .6 .1 .9 .2c.3 .1 .5 .3 .7 .5c.2 .2 .4 .4 .5 .7c.1 .3 .2 .6 .2 .9Z" class="g3_2"/>
<path d="M292.6 493.4c0 .3-.1 .6-.2 .9c-.1 .2-.3 .5-.5 .7c-.2 .2-.4 .4-.7 .5c-.3 .1-.6 .2-.9 .2c-.3 0-.6-.1-.8-.2c-.3-.1-.6-.3-.8-.5c-.2-.2-.3-.5-.5-.7c-.1-.3-.1-.6-.1-.9c0-.3 0-.6 .1-.9c.2-.2 .3-.5 .5-.7c.2-.2 .5-.4 .8-.5c.2-.1 .5-.1 .8-.1c.3 0 .6 0 .9 .1c.3 .1 .5 .3 .7 .5c.2 .2 .4 .5 .5 .7c.1 .3 .2 .6 .2 .9Z" class="g3_2"/>
<path d="M292.6 557.6c0 .3-.1 .6-.2 .9c-.1 .3-.3 .5-.5 .7c-.2 .2-.4 .4-.7 .5c-.3 .1-.6 .2-.9 .2c-.3 0-.6-.1-.8-.2c-.3-.1-.6-.3-.8-.5c-.2-.2-.3-.4-.5-.7c-.1-.3-.1-.6-.1-.9c0-.3 0-.5 .1-.8c.2-.3 .3-.5 .5-.8c.2-.2 .5-.3 .8-.4c.2-.2 .5-.2 .8-.2c.3 0 .6 0 .9 .2c.3 .1 .5 .2 .7 .4c.2 .3 .4 .5 .5 .8c.1 .3 .2 .5 .2 .8Z" class="g3_2"/>
</g>
<g clip-path="url(#ci_2)">
<path d="M623.8 430.4c0 .3 0 .6-.1 .9c-.1 .3-.3 .5-.5 .7c-.2 .2-.5 .4-.7 .5c-.3 .1-.6 .2-.9 .2c-.3 0-.6-.1-.9-.2c-.3-.1-.5-.3-.7-.5c-.2-.2-.4-.4-.5-.7c-.1-.3-.2-.6-.2-.9c0-.3 .1-.5 .2-.8c.1-.3 .3-.5 .5-.8c.2-.2 .4-.3 .7-.4c.3-.2 .6-.2 .9-.2c.3 0 .6 0 .9 .2c.2 .1 .5 .2 .7 .4c.2 .3 .4 .5 .5 .8c.1 .3 .1 .5 .1 .8Z" class="g3_2"/>
<path d="M623.8 516.1c0 .3 0 .6-.1 .8c-.1 .3-.3 .6-.5 .8c-.2 .2-.5 .3-.7 .5c-.3 .1-.6 .1-.9 .1c-.3 0-.6 0-.9-.1c-.3-.2-.5-.3-.7-.5c-.2-.2-.4-.5-.5-.8c-.1-.2-.2-.5-.2-.8c0-.3 .1-.6 .2-.9c.1-.3 .3-.5 .5-.7c.2-.2 .4-.4 .7-.5c.3-.1 .6-.2 .9-.2c.3 0 .6 .1 .9 .2c.2 .1 .5 .3 .7 .5c.2 .2 .4 .4 .5 .7c.1 .3 .1 .6 .1 .9Z" class="g3_2"/>
<path d="M623.8 580.3c0 .3 0 .6-.1 .9c-.1 .2-.3 .5-.5 .7c-.2 .2-.5 .4-.7 .5c-.3 .1-.6 .2-.9 .2c-.3 0-.6-.1-.9-.2c-.3-.1-.5-.3-.7-.5c-.2-.2-.4-.5-.5-.7c-.1-.3-.2-.6-.2-.9c0-.3 .1-.6 .2-.9c.1-.2 .3-.5 .5-.7c.2-.2 .4-.4 .7-.5c.3-.1 .6-.1 .9-.1c.3 0 .6 0 .9 .1c.2 .1 .5 .3 .7 .5c.2 .2 .4 .5 .5 .7c.1 .3 .1 .6 .1 .9Z" class="g3_2"/>
</g>
<g clip-path="url(#cj_2)">
<path d="M20.1 989.1c0 .3-.1 .6-.2 .9c-.1 .2-.3 .5-.5 .7c-.2 .2-.4 .4-.7 .5c-.3 .1-.6 .1-.9 .1c-.3 0-.6 0-.8-.1c-.3-.1-.6-.3-.8-.5c-.2-.2-.4-.5-.5-.7c-.1-.3-.1-.6-.1-.9c0-.3 0-.6 .1-.9c.1-.3 .3-.5 .5-.7c.2-.2 .5-.4 .8-.5c.2-.1 .5-.2 .8-.2c.3 0 .6 .1 .9 .2c.3 .1 .5 .3 .7 .5c.2 .2 .4 .4 .5 .7c.1 .3 .2 .6 .2 .9Z" class="g3_2"/>
<path d="M20.1 1074.7c0 .3-.1 .6-.2 .9c-.1 .3-.3 .5-.5 .7c-.2 .2-.4 .4-.7 .5c-.3 .1-.6 .2-.9 .2c-.3 0-.6-.1-.8-.2c-.3-.1-.6-.3-.8-.5c-.2-.2-.4-.4-.5-.7c-.1-.3-.1-.6-.1-.9c0-.3 0-.6 .1-.8c.1-.3 .3-.6 .5-.8c.2-.2 .5-.3 .8-.5c.2-.1 .5-.1 .8-.1c.3 0 .6 0 .9 .1c.3 .2 .5 .3 .7 .5c.2 .2 .4 .5 .5 .8c.1 .2 .2 .5 .2 .8Z" class="g3_2"/>
</g>
<g clip-path="url(#ck_2)">
<path d="M299.9 983c0 .3-.1 .6-.2 .9c-.1 .3-.3 .5-.5 .7c-.2 .2-.5 .4-.7 .5c-.3 .1-.6 .2-.9 .2c-.3 0-.6-.1-.9-.2c-.2-.1-.5-.3-.7-.5c-.2-.2-.4-.4-.5-.7c-.1-.3-.2-.6-.2-.9c0-.3 .1-.5 .2-.8c.1-.3 .3-.5 .5-.7c.2-.3 .5-.4 .7-.5c.3-.2 .6-.2 .9-.2c.3 0 .6 0 .9 .2c.2 .1 .5 .2 .7 .5c.2 .2 .4 .4 .5 .7c.1 .3 .2 .5 .2 .8Z" class="g3_2"/>
<path d="M299.9 1047.3c0 .3-.1 .6-.2 .8c-.1 .3-.3 .6-.5 .8c-.2 .2-.5 .3-.7 .5c-.3 .1-.6 .1-.9 .1c-.3 0-.6 0-.9-.1c-.2-.2-.5-.3-.7-.5c-.2-.2-.4-.5-.5-.8c-.1-.2-.2-.5-.2-.8c0-.3 .1-.6 .2-.9c.1-.3 .3-.5 .5-.7c.2-.2 .5-.4 .7-.5c.3-.1 .6-.2 .9-.2c.3 0 .6 .1 .9 .2c.2 .1 .5 .3 .7 .5c.2 .2 .4 .4 .5 .7c.1 .3 .2 .6 .2 .9Z" class="g3_2"/>
<path d="M299.9 1090.1c0 .3-.1 .6-.2 .9c-.1 .2-.3 .5-.5 .7c-.2 .2-.5 .4-.7 .5c-.3 .1-.6 .1-.9 .1c-.3 0-.6 0-.9-.1c-.2-.1-.5-.3-.7-.5c-.2-.2-.4-.5-.5-.7c-.1-.3-.2-.6-.2-.9c0-.3 .1-.6 .2-.9c.1-.2 .3-.5 .5-.7c.2-.2 .5-.4 .7-.5c.3-.1 .6-.2 .9-.2c.3 0 .6 .1 .9 .2c.2 .1 .5 .3 .7 .5c.2 .2 .4 .5 .5 .7c.1 .3 .2 .6 .2 .9Z" class="g3_2"/>
<path d="M299.9 1132.9c0 .3-.1 .6-.2 .9c-.1 .3-.3 .5-.5 .7c-.2 .2-.5 .4-.7 .5c-.3 .1-.6 .2-.9 .2c-.3 0-.6-.1-.9-.2c-.2-.1-.5-.3-.7-.5c-.2-.2-.4-.4-.5-.7c-.1-.3-.2-.6-.2-.9c0-.3 .1-.6 .2-.8c.1-.3 .3-.6 .5-.8c.2-.2 .5-.4 .7-.5c.3-.1 .6-.1 .9-.1c.3 0 .6 0 .9 .1c.2 .1 .5 .3 .7 .5c.2 .2 .4 .5 .5 .8c.1 .2 .2 .5 .2 .8Z" class="g3_2"/>
</g>
<g clip-path="url(#cl_2)">
<path d="M633.4 987.6c0 .3-.1 .6-.2 .9c-.1 .3-.3 .5-.5 .7c-.2 .2-.4 .4-.7 .5c-.3 .1-.6 .2-.9 .2c-.3 0-.6-.1-.8-.2c-.3-.1-.6-.3-.8-.5c-.2-.2-.3-.4-.5-.7c-.1-.3-.1-.6-.1-.9c0-.3 0-.6 .1-.8c.2-.3 .3-.6 .5-.8c.2-.2 .5-.3 .8-.5c.2-.1 .5-.1 .8-.1c.3 0 .6 0 .9 .1c.3 .2 .5 .3 .7 .5c.2 .2 .4 .5 .5 .8c.1 .2 .2 .5 .2 .8Z" class="g3_2"/>
<path d="M633.4 1073.3c0 .3-.1 .6-.2 .8c-.1 .3-.3 .5-.5 .8c-.2 .2-.4 .3-.7 .4c-.3 .2-.6 .2-.9 .2c-.3 0-.6 0-.8-.2c-.3-.1-.6-.2-.8-.4c-.2-.3-.3-.5-.5-.8c-.1-.2-.1-.5-.1-.8c0-.3 0-.6 .1-.9c.2-.3 .3-.5 .5-.7c.2-.2 .5-.4 .8-.5c.2-.1 .5-.2 .8-.2c.3 0 .6 .1 .9 .2c.3 .1 .5 .3 .7 .5c.2 .2 .4 .4 .5 .7c.1 .3 .2 .6 .2 .9Z" class="g3_2"/>
</g>
<g clip-path="url(#cm_2)">
<path d="M721.8 65.3H859.2v1H721.8v-1Z" class="g2_2"/>
</g>
<path d="M13 115.7H922V13H13V115.7Z" class="g4_2"/>
<path d="M637.9 102.2H639V20.3h-1.1v81.9Z" class="g4_2"/>
<path d="M25.8 167.7H909.2V125.6H25.8v42.1Z" class="g4_2"/>
<path d="M22.8 703.1H906.3V661H22.8v42.1Z" class="g4_2"/>
</svg>